Coordinates
version=1
nRows=14
nColumns=40
inDegrees=yes

Units are S.I. units (second, meters, Newtons, ...)
If the header above contains a line with 'inDegrees', this indicates whether rotational values are in degrees (yes) or radians (no).

endheader
time	pelvis_tilt	pelvis_list	pelvis_rotation	pelvis_tx	pelvis_ty	pelvis_tz	hip_flexion_r	hip_adduction_r	hip_rotation_r	knee_angle_r	knee_angle_r_beta	ankle_angle_r	subtalar_angle_r	mtp_angle_r	hip_flexion_l	hip_adduction_l	hip_rotation_l	knee_angle_l	knee_angle_l_beta	ankle_angle_l	subtalar_angle_l	mtp_angle_l	lumbar_extension	lumbar_bending	lumbar_rotation	arm_flex_r	arm_add_r	arm_rot_r	elbow_flex_r	pro_sup_r	wrist_flex_r	wrist_dev_r	arm_flex_l	arm_add_l	arm_rot_l	elbow_flex_l	pro_sup_l	wrist_flex_l	wrist_dev_l
      4.05000000	      3.74966192	      4.12137141	     -6.06464531	      0.07014047	      1.31925363	      0.01156761	     48.16514792	    -12.55265834	     -4.13526292	    100.69183629	      1.75740407	      4.67289770	    -13.59928101	      0.00000000	     35.31197284	     -7.81602621	    -10.55191985	     54.59870279	      0.95292713	     -1.76773408	     -6.47879668	      0.00000000	    -56.96639700	      0.64398405	     -1.29036298	     48.56972977	      5.73778851	    -19.97858726	     42.72216714	     52.71123671	      0.00000000	      0.00000000	     50.70616400	     20.21809251	    -15.17071876	     30.94906315	      6.41368490	      0.00000000	      0.00000000
      4.06700000	      3.34812457	      3.96292705	     -7.00238461	      0.06986694	      1.31839140	      0.01234987	     52.01430298	    -12.19269053	     -3.01164843	    103.34950532	      1.80378915	      6.19135346	    -13.77118434	      0.00000000	     32.12859121	     -8.21166028	    -12.18327635	     51.19972543	      0.89360378	     -3.15613002	     -5.83855032	      0.00000000	    -56.61811190	      0.19952685	     -0.65441705	     48.70860548	      5.74239718	    -19.54462716	     42.54873623	     52.77343365	      0.00000000	      0.00000000	     50.69767610	     20.01893753	    -15.16501089	     30.95325364	      6.19055955	      0.00000000	      0.00000000
      4.08300000	      2.97369026	      3.92829414	     -7.86652694	      0.06966317	      1.31749087	      0.01315470	     55.77735770	    -11.85720870	     -1.77724399	    105.18238738	      1.83577897	      7.95860118	    -13.47856172	      0.00000000	     29.19273793	     -8.45305967	    -13.75250140	     48.76685318	      0.85114215	     -4.00412108	     -5.24503552	      0.00000000	    -56.25398189	     -0.26634390	     -0.11767003	     48.77797468	      5.76739061	    -19.19662462	     42.40246025	     52.80890356	      0.00000000	      0.00000000	     50.72256159	     19.80035728	    -15.05707074	     30.83956196	      5.90319559	      0.00000000	      0.00000000
      4.10000000	      2.64268616	      3.81207717	     -8.29894323	      0.06962788	      1.31665923	      0.01345820	     58.92445422	    -11.56749138	     -0.88334339	    105.88376890	      1.84802039	      9.60026828	    -13.39477262	      0.00000000	     26.89723482	     -8.55140331	    -14.74092410	     47.50909783	      0.82919018	     -4.34844573	     -4.86221421	      0.00000000	    -55.95080237	     -0.37046379	      0.24003767	     48.82820037	      5.81479378	    -18.88956686	     42.27747001	     52.86665293	      0.00000000	      0.00000000	     50.75085168	     19.60368941	    -15.00222699	     30.74623317	      5.84218191	      0.00000000	      0.00000000
      4.11700000	      2.42571946	      3.56519318	     -8.38647478	      0.06980564	      1.31614022	      0.01331705	     61.40516258	    -11.22089563	     -0.19025877	    105.32995827	      1.83835457	     10.49875498	    -13.38730742	      0.00000000	     25.14154111	     -8.48704903	    -14.91177939	     47.48402207	      0.82875253	     -3.64328938	     -4.95686023	      0.00000000	    -55.82610289	     -0.19272020	      0.52761004	     48.83858005	      5.92001973	    -18.82292643	     42.24689951	     52.87316537	      0.00000000	      0.00000000	     50.75652204	     19.47403397	    -14.94048686	     30.75452190	      5.94441262	      0.00000000	      0.00000000
      4.13300000	      2.19659220	      3.47779126	     -8.52286397	      0.07003635	      1.31551680	      0.01332684	     63.52953938	    -10.66179681	      0.84236184	    103.71737474	      1.81020968	     10.84271818	    -13.17122408	      0.00000000	     23.96042660	     -8.43614504	    -15.18535954	     48.72618510	      0.85043236	     -2.33087861	     -5.21615762	      0.00000000	    -55.67188083	     -0.20656314	      0.71686679	     48.76335045	      6.08251730	    -18.86004817	     42.34760701	     52.89691013	      0.00000000	      0.00000000	     50.77287707	     19.31656086	    -14.70958655	     30.74842221	      5.81049593	      0.00000000	      0.00000000
      4.15000000	      2.34735618	      3.54765018	     -8.28780647	      0.07049517	      1.31569587	      0.01300440	     64.35982204	    -10.49794458	      1.71755521	    101.18814599	      1.76606631	     10.87237687	    -13.31722785	      0.00000000	     23.22301899	     -8.16571008	    -14.84714347	     51.12122195	      0.89223364	     -1.12002692	     -5.50915318	      0.00000000	    -55.91194523	     -0.08573785	      0.54803254	     48.76961278	      6.21580072	    -18.93823209	     42.42526905	     52.88353405	      0.00000000	      0.00000000	     50.86800978	     19.20633526	    -14.56723634	     30.74207471	      5.91646382	      0.00000000	      0.00000000
      4.16700000	      2.37290743	      3.58890545	     -7.90322572	      0.07099340	      1.31577736	      0.01264395	     64.26514570	    -10.35745555	      2.33795267	     97.54855660	      1.70254349	     10.60612192	    -13.45129905	      0.00000000	     23.59368603	     -8.05207124	    -14.01066394	     55.06472443	      0.96106074	      0.35879258	     -6.31536130	      0.00000000	    -56.06069754	      0.15362117	      0.38218341	     48.85689786	      6.30698595	    -19.15930335	     42.45416886	     52.88713017	      0.00000000	      0.00000000	     51.00014848	     19.11273852	    -14.30500480	     30.69735731	      5.96751892	      0.00000000	      0.00000000
      4.18300000	      2.36341366	      3.69787525	     -7.14998943	      0.07140992	      1.31598618	      0.01194779	     63.31783317	    -10.47557034	      2.81908685	     92.98767194	      1.62294104	      9.95112826	    -13.86353204	      0.00000000	     24.93235091	     -7.88009148	    -12.62111108	     60.24940025	      1.05155041	      1.02067675	     -7.13435160	      0.00000000	    -56.20132941	      0.61017666	     -0.01067798	     48.95899036	      6.33510587	    -19.32040427	     42.57267294	     52.95318281	      0.00000000	      0.00000000	     51.15657247	     19.05406800	    -13.99337594	     30.70078328	      5.90593959	      0.00000000	      0.00000000
      4.20000000	      2.56146716	      4.16359226	     -6.37764850	      0.07176116	      1.31651692	      0.01131899	     61.54221082	    -10.96129665	      3.39316919	     88.06199364	      1.53697173	      9.00693366	    -14.18485233	      0.00000000	     26.51346270	     -7.46512864	    -11.38719900	     65.85991374	      1.14947234	      1.67605429	     -7.51983217	      0.00000000	    -56.44589197	      0.82895754	     -0.69612301	     48.98390442	      6.33975063	    -19.57976216	     42.73253035	     52.98518676	      0.00000000	      0.00000000	     51.35142607	     19.02444518	    -13.71686059	     30.59977450	      5.94229474	      0.00000000	      0.00000000
      4.21700000	      2.91228640	      4.98372839	     -5.56904980	      0.07191921	      1.31734501	      0.01089973	     58.90952135	    -11.87698982	      3.90663984	     82.65225614	      1.44255400	      7.76992640	    -14.24668969	      0.00000000	     28.46707699	     -6.86210182	    -10.20153394	     71.99081886	      1.25647682	      2.22649653	     -7.30891238	      0.00000000	    -56.71772787	      0.82583403	     -1.64719605	     48.84430481	      6.29928517	    -19.90774550	     43.00273263	     52.91882140	      0.00000000	      0.00000000	     51.56755099	     19.08918695	    -13.56529927	     30.37210453	      6.36723744	      0.00000000	      0.00000000
      4.23300000	      3.25991018	      5.98308875	     -4.55308172	      0.07195163	      1.31807411	      0.01041569	     55.56677283	    -13.16390078	      4.08824080	     76.74492708	      1.33945166	      6.34794375	    -14.39233867	      0.00000000	     30.99405725	     -6.12999579	     -8.90585023	     78.57544242	      1.37140018	      2.32573023	     -6.71278931	      0.00000000	    -56.90390842	      0.85696967	     -2.82439850	     48.56951290	      6.19119149	    -20.21102084	     43.35090258	     52.81923118	      0.00000000	      0.00000000	     51.75274177	     19.20329502	    -13.40484136	     30.10845942	      6.75206050	      0.00000000	      0.00000000
      4.25000000	      3.54095825	      7.09401449	     -3.69856685	      0.07177343	      1.31871475	      0.01000452	     52.00304684	    -14.47649061	      4.04654653	     70.93105596	      1.23798047	      4.65787439	    -14.40650511	      0.00000000	     33.70752982	     -5.32540579	     -7.99636839	     84.73290775	      1.47886823	      2.46289895	     -6.29185253	      0.00000000	    -57.02868661	      0.69377197	     -4.00437803	     48.29633196	      6.06605617	    -20.50943186	     43.68291687	     52.67746128	      0.00000000	      0.00000000	     51.90321874	     19.31172444	    -13.18395470	     29.85279108	      7.31374367	      0.00000000	      0.00000000
      4.26700000	      3.61731523	      7.84479329	     -2.49933126	      0.07131966	      1.31903041	      0.00926743	     47.97648110	    -15.77291334	      2.82494625	     65.21449280	      1.13820762	      3.48921209	    -15.03169505	      0.00000000	     36.99565023	     -4.62806980	     -6.81022933	     90.59903095	      1.58125139	      2.63339633	     -6.08191768	      0.00000000	    -56.96458378	      1.00954449	     -5.08134599	     48.02694346	      5.83835035	    -20.64514628	     43.99556035	     52.57360395	      0.00000000	      0.00000000	     51.97253572	     19.37799040	    -12.64819034	     29.65917879	      7.00055848	      0.00000000	      0.00000000
